<?xml version="1.0" encoding="UTF-8"?>
<svg version="1.1" viewBox="0 0 400 400" xml:space="preserve" xmlns="http://www.w3.org/2000/svg"><g fill="#224bd0"><rect x=".49875" y=".49875" width="399" height="399" fill="#224bd0" stroke="#fbf3f2" stroke-width=".99751"/></g><circle cx="200" cy="200" r="199.75" fill="#f4fff8" stroke="#fbf3f2" stroke-width=".49938"/><path d="m243.75 113.25v-38.25h-43.75v25h18.75v13c-9.8751 0.87469-19.5 2.8749-28.75 5.75-2.125-3.75-6-6.25-10.5-6.25h-42c-6.875 0-12.5 5.625-12.5 12.5s5.625 12.5 12.5 12.5h13.125a143.75 143.75 0 0 0-63.125 114.75c-14.375 5.125-25 18.875-25 35.25 0 20.75 16.75 37.5 37.5 37.5s37.5-16.75 37.5-37.5c0-16.25-10.375-29.875-25-35.125 0.87469-19 5.7501-36.75 14.25-52.375-1.125 6.2499-1.7499 12.5-1.7499 18.75 0 58.625 47.625 106.25 106.25 106.25s106.25-47.625 106.25-106.25c0-54.5-41-99.25-93.75-105.5m-143.75 186.75c-6.875 0-12.5-5.625-12.5-12.5s5.625-12.5 12.5-12.5 12.5 5.625 12.5 12.5-5.625 12.5-12.5 12.5m131.25 0c-44.75 0-81.25-36.5-81.25-81.25 0-40.5 29.875-74.125 68.75-80.125v98.875h25v-98.875c38.875 6 68.75 39.625 68.75 80.125 0 44.75-36.5 81.25-81.25 81.25z" fill="#240115" stroke-width="12.5"/></svg>
